<?xml version="1.0" encoding="UTF-8"?>
<svg version="1.1" viewBox="0 0 1600 419" width="1280" height="1280" xmlns="http://www.w3.org/2000/svg">
<path transform="translate(131,82)" d="m0 0 16 1 15 4 16 8 9 7 19 19 12 6 9 2h17l11-3 4-4-1-4-8 1-10 2h-9l-10-2-11-7 1-4 11-10 16-9 10-4 10-2h25l14 3 16 7 11 7 12 11 8 9 8 13 5 14 2 10v22l-3 12-1 1-90 1-4 4-16 33-3 2-5-5-10-11-11-14-11-12-8-10-12-14-9-11-5-2-6 10-14 28-1 1h-101l-4-16v-22l3-12 4-10 7-11 10-12 10-8 12-8 17-7 14-3z" fill="#00E0B5"/>
<path transform="translate(172,167)" d="m0 0 4 1 9 11 10 11 8 10 12 14 9 11 12 14 7 7 4-2 12-23 8-17 2-2h81l-1 5-8 14-7 9-9 11-17 17-11 9-16 13-14 10-13 10-18 13-19 14-8 7-6 4-4-1-3-3-11-9-11-8-32-24-28-22-13-11-11-11-8-7-7-8-12-15-8-14-1-3 98-1 3-1 15-29z" fill="#00CEC5"/>
<path transform="translate(258,83)" d="m0 0h25l14 3 16 7 11 7 12 11 8 9 8 13 5 14 2 10v22l-3 12-1 1-90 1-4 4-16 33-3 2-5-5-10-11-11-14-6-7 4-2 1-2 3-22-1-13-2-9-4-9-6-11 1-3h3l9 3 9 2h17l11-3 4-4-1-4-8 1-10 2h-9l-10-2-11-7 1-4 11-10 16-9 10-4z" fill="#01ADEA"/>
<path transform="translate(169,173)" d="m0 0h8l4 5v2h2l7 8 2 11 2 2 2 16-1 7v24l2 14-1 14 1 4v13h-2l1 10-2 9h2l3 10v3h-9l-10-6-6-2-32-24-28-22-13-11-11-11-8-7-7-8-12-15-8-14-1-3 98-1 3-1z" fill="#00E0B5"/>
<path transform="translate(417,136)" d="m0 0h45l73 1v22l-2 1h-91l1 53 85 1v23h-86v59h97v23h-122l-1-1v-181z" fill="#00EFA0"/>
<path transform="translate(969,136)" d="m0 0h62l16 1 12 3 10 5 10 9 6 9 4 13 1 15-3 15-6 12-6 7-9 6-12 5-10 2-22 1h-30v79l-1 1h-24l-1-4v-174l1-4zm23 22-1 58 1 1h28l18-1 10-3 9-6 4-7 2-9v-7l-3-11-4-6-8-5-9-3-6-1z" fill="#01CFC4"/>
<path transform="translate(1486,193)" d="m0 0h10l12 2 12 5 9 6 7 7 8 14 5 19v19l-1 1h-96l2 11 5 9 7 6 14 7 15 2 13-3 9-6 8-8 4 1 9 7 5 3-1 4-6 7-10 7-12 5-11 3-8 1h-13l-11-2-11-4-10-6-7-6-7-10-7-15-2-9-1-13 1-13 4-13 6-11 11-12 14-9 16-5zm1 19-12 3-8 4-9 9-6 12v7l1 1 72-1-3-15-6-10-8-6-8-3z" fill="#01ADEA"/>
<path transform="translate(861,194)" d="m0 0h26l12 4 11 6 6 5 9 13 5 13 2 9 1 9v12l-1 1h-97l3 12 4 8 9 7 8 5 19 3 10-2 8-4 9-7 4-4 5 2 13 10-3 5-7 7-13 8-16 5-8 1h-16l-10-2-13-5-11-8-9-10-8-16-3-12v-24l5-15 6-11 9-10 11-8 11-5zm4 19-11 4-8 6-8 11-3 10 1 4h70l1-1-1-13-5-10-8-7-10-4z" fill="#00E0B5"/>
<path transform="translate(614,193)" d="m0 0 18 1 13 4 11 6 6 7 5 10 2 9 1 89h-20l-1-1-1-16-5 4-6 7-12 6-13 3h-16l-15-5-8-6-6-7-4-9-1-5v-8l2-9 5-10 8-8 16-8 22-4 19-1h13l-2-10-4-9-5-5-7-3-5-1h-17l-11 4-11 7-5-1-10-11 1-4 13-8 12-5 8-2zm12 67-16 2-13 4-8 7-3 8 2 11 4 6 8 4 7 1h9l10-2 10-6 6-7 4-11 1-5v-12z" fill="#00EFA1"/>
<path transform="translate(1114,197)" d="m0 0h23l1 76 2 10 5 8v2l4 2 11 4h12l9-3 8-7 5-7 3-10 1-69 1-6h23v122h-22l-1-1v-16l-5 5-8 7-9 5-13 3h-14l-13-4-9-6-7-8-5-10-2-7-1-10v-79z" fill="#01ADEA"/>
<path transform="translate(108,86)" d="m0 0h5l1 2-1 2 3 1 1 2 4 2 1 4-1 2 3 1 1 22-1 4-3 5v12l-3 27-2 1 1 7 4 3 6 2 1 4h-2v2l-54 1h-23l-4-16v-22l3-12 4-10 7-11 10-12 10-8 12-8z" fill="#00EFA0"/>
<path transform="translate(741,193)" d="m0 0 15 1 12 4 10 6 6 7 1 3-5 5-8 6-2 2-4-1-10-7-6-2h-15l-8 4-4 6 1 6 5 6 10 5 21 5 13 5 10 9 4 6 2 8v14l-3 8-6 9-9 7-13 5-10 2h-18l-16-4-10-5-6-5-5-6 1-4 14-12 5 2 10 7 7 3 13 1 10-2 8-5 2-4v-6l-4-6-6-4-15-5-15-4-10-4-8-6-6-10-2-10v-7l3-10 6-9 11-8 10-4z" fill="#00E0B5"/>
<path transform="translate(1357,193)" d="m0 0 16 1 14 5 11 8 3 4-1 5-14 11-4-1-7-6-13-4h-7l-9 3-5 5-1 7 3 6 10 6 30 8 11 6 7 7 5 13v12l-3 10-6 8-8 7-9 4-10 3-7 1h-15l-12-2-12-5-9-7-5-6 1-4 13-11 4-1 9 8 9 4 4 1h13l9-3 5-4 2-4v-7l-3-5-8-5-13-4-16-4-14-7-7-9-4-10v-13l4-10 6-8 10-7 10-4z" fill="#01ADEA"/>
<path transform="translate(269,202)" d="m0 0h81l-1 5-8 14-7 9-9 11-17 17-11 9-16 13-14 10-11 8-1-4 4-5 1-8h-2v-2l-4-1-1-9-1-5-1-10-3-4v-2h-2l1-4 12-23 8-17z" fill="#01ADEA"/>
<path transform="translate(1259,124)" d="m0 0h23l1 2-1 193h-23l-1-13v-181z" fill="#01ADEA"/>
<path transform="translate(980,136)" d="m0 0h51l16 1 12 3 10 5 10 9 6 9 4 13 1 15-3 15-6 12-6 7-9 6-12 5-10 2-22 1h-22l4-4v3l16-1v-2l5-1-8-1 1-4 1-1 17-1-2-4-8-4-15-1v-1l27-2 10-3 8-5 4-7 2-9v-7l-3-11-4-6-12-6-10-2-37-1v-1h12l2-7 17-3 2-4-5-2v-2l-11-1-21 1-9 1-5-2z" fill="#00C3D3"/>
<path transform="translate(205,124)" d="m0 0h4l9 3 9 2h21v5l5 1 2 5 2 1 2 5 1 2-1 1 1 2h-2v2h2l-1 9 1 5-2 9-1 12 1 2 1 7 1 2-15 31-3 2-5-5-10-11-11-14-6-7 4-2 1-2 3-22-1-13-2-9-4-9-6-11z" fill="#01C2D4"/>
<path transform="translate(861,194)" d="m0 0h26l12 4 11 6 6 5 9 13 5 13 2 9 1 9v12l-1 1h-36l-43-1v-5l-5-2v-5l-5-3-2-2 65-1-1-13-5-10-7-6-10-4h-18l-11 4h-2l-1-4h-5l-3-1v-2h-7v2l-6 2-4 1-1 3h-2l-1 4-4 3 2-5 6-8 10-9 16-8z" fill="#00D4C0"/>
<path transform="translate(54,202)" d="m0 0h95v1h-23l-1 4 2 1-1 5 3 8h-3l1 4 4 1-1 5-2 4v2l2 1v9l-2 13 1 8v7l-6-2-1-3-10-1-10-8-12-12-8-7-7-8-12-15-8-14z" fill="#00EFA0"/>
<path transform="translate(1114,197)" d="m0 0h23l1 76 2 10 5 8v2l4 2 11 4 12 3 7 2 5 1-4 6-4 3-16 4-17-3-12-7-9-8-4-5-2-1-2-7-1-10v-79z" fill="#01C2D4"/>
<path transform="translate(169,173)" d="m0 0h8l4 5v2h2l7 8 2 11 2 2 2 16-1 7v24l2 14-1 14 1 4v13h-2l1 10-2 9h2l3 10v3h-9l-10-6-6-2-16-12-3-3 3-1 5 4 10 2-1-13 1-8 3 2 1-3v-13l-3-39-1-9v-8l-2-5v-4l2-1-4-8v-2h-8l-2 4-3 1 1-5z" fill="#00D5BF"/>
<path transform="translate(165,89)" d="m0 0 6 2 10 6 10 9 15 15 3 2-1 3-2-1 2 6 6 11 3 7 2 14-1 15-2 13-2 4-6-2-12-14-9-11-11-13-5-2-6 10-4 7h-1v-8l2-9 7-6 2-4 2-3-2-1 1-2-1-7 1-8 3-2-3-7v-6l-2-5-2-8-3-3z" fill="#01CEC5"/>
<path transform="translate(210,210)" d="m0 0 5 4 9 11 12 14 7 7h3v2h2l4 6 1 10 1 5v9l4 1v2h2l1 4-2 5-3 4-2 6-18 13-9 7-2-1 2-12h-3v-3l-3 5-5-1 1-10v-23l1-1-1-6-1-9-1-5v-24l-5-13-2-3h2l-1-3z" fill="#01C2D4"/>
<path transform="translate(909,284)" d="m0 0 5 2 13 10-3 5-7 7-13 8-16 5-8 1h-16l-10-2-9-3 3-3 8-1h3v-2h2v-2l-3-1-3-4v-4l4 1 2-2 17 2 10-2 8-4 9-7z" fill="#00D4C0"/>
<path transform="translate(165,89)" d="m0 0 6 2 6 3 1 4 5 4 7 9 2 6 4 10v14l-2 9-1 8 1 5-2 1v2l-6 1-10-12-5-2-6 10-4 7h-1v-8l2-9 7-6 2-4 2-3-2-1 1-2-1-7 1-8 3-2-3-7v-6l-2-5-2-8-3-3z" fill="#00D5BF"/>
<path transform="translate(200,198)" d="m0 0 6 5 4 5v6 2l3 5 3 9v24l2 9v7l1 6-1 1v21l-1 10 4 1 1-5h2v3h3l-1 12-5 5-12 10-6 4-4-1-3-3-7-6 3-1 5 3 2 3 6 2v-2h2v-17l4-13-1-8-1-1-1-16-1-24v-25l-4-17-3-8z" fill="#02CCCE"/>
<path transform="translate(969,136)" d="m0 0 9 1 5 2 9-1 22-1 10 1 1 3 4 2v4l-12 3-7 1v4h-2v2l-19 2h-5v2h-3l-3-8-1-1-1-10h-5l-3 1-1 2v-8z" fill="#02CCCD"/>
<path transform="translate(231,95)" d="m0 0h11l1 2-1 3h5v4l4-2 4 4-2 5 2 1-1 4 2 1-9 3-7 1h-9l-10-2-11-7 1-4 11-10 4-2z" fill="#01C3D3"/>
<path transform="translate(200,117)" d="m0 0 4 2 5 4-1 3-2-1 2 6 6 11 3 7 2 14-1 15-2 13-2 4-6-2-8-10 2-2h3l2-10 1-9v-11l-3-16-2-9-4-7z" fill="#02CCCE"/>
<path transform="translate(998,217)" d="m0 0h13l15 1 9 5 2 4-1 1-17 1-2 4h10l-2 2h-5v2l-3 1h-13l-1-2-2 2-4-1 6-5v-2l-5-5z" fill="#03CDCE"/>
<path transform="translate(991,161)" d="m0 0h1v32l-1 7-3-1-1-4 3-1-1-5v-11z" fill="#02C9D0"/>
<path transform="translate(909,284)" d="m0 0 5 2 1 2-14 8-2-1 1-3 6-5z" fill="#01CDC6"/>
<path transform="translate(840,285)" d="m0 0 8 6 7 5-1 2-10-5-1-3h-2z" fill="#00D5BF"/>
<path transform="translate(991,304)" d="m0 0h1v14l-1 1h-24l1-2h21l1-2z" fill="#01C3D4"/>
<path transform="translate(652,202)" d="m0 0 6 4 6 8-1 2-4-3v-3l-4-2-3-3z" fill="#00E0B5"/>
<path transform="translate(823,298)" d="m0 0 5 2v2l4 2 4 6-5-2-7-7z" fill="#00D1C4"/>
<path transform="translate(827,212)" d="m0 0 3 1-2 3h-2l-1 3h-2l-1 4-4 3 2-5 6-8z" fill="#00D2C2"/>
<path transform="translate(668,302)" d="m0 0h1l1 6v11l-4-1z" fill="#00DEB7"/>
<path transform="translate(920,293)" d="m0 0 5 1 2 3-5 5-2-1v-2h2z" fill="#00CFC4"/>
<path transform="translate(189,327)" d="m0 0 6 1 4 6-5-1z" fill="#02CDCC"/>
</svg>
