<svg width="95" height="13" viewBox="0 0 95 13" fill="none" xmlns="http://www.w3.org/2000/svg">
<g clip-path="url(#clip0_106_2)">
<path d="M5.42857 0L6.43854 0.0507317L7.38538 0.253659L8.39535 0.659512L8.96345 1.01463L10.1628 1.97854L10.9203 2.28293L11.4884 2.38439H12.5615L13.2558 2.2322L13.5083 2.02927L13.4452 1.82634L12.9402 1.87707L12.309 1.97854H11.7409L11.1096 1.87707L10.4153 1.52195L10.4784 1.31902L11.1728 0.811707L12.1827 0.355122L12.814 0.152195L13.4452 0.0507317H15.0233L15.907 0.202927L16.9169 0.558049L17.6113 0.913171L18.3688 1.47122L18.8738 1.9278L19.3787 2.58732L19.6944 3.29756L19.8206 3.80488V4.92098L19.6312 5.52976L19.5681 5.58049L13.887 5.63122L13.6346 5.83415L12.6246 7.50829L12.4352 7.60976L12.1196 7.3561L11.4884 6.79805L10.794 6.0878L10.0997 5.47902L9.59468 4.97171L8.83721 4.26146L8.2691 3.70341L7.95349 3.60195L7.57475 4.10927L6.69103 5.52976L6.62791 5.58049H0.252492L0 4.76878V3.65268L0.189369 3.0439L0.44186 2.53659L0.883721 1.97854L1.51495 1.36976L2.14618 0.963902L2.90365 0.558049L3.97674 0.202927L4.86046 0.0507317L5.42857 0Z" fill="#00E0B5"/>
<path d="M8.01662 4.31219L8.26911 4.36293L8.83722 4.92098L9.46845 5.47902L9.97343 5.98634L10.7309 6.69659L11.299 7.25463L12.0565 7.96488L12.4983 8.32L12.7508 8.21854L13.5083 7.05171L14.0133 6.18927L14.1395 6.0878H19.2525L19.1894 6.34146L18.6844 7.05171L18.2425 7.50829L17.6744 8.06634L16.6013 8.92878L15.907 9.38537L14.897 10.0449L14.0133 10.5522L13.1927 11.0595L12.0565 11.719L10.8572 12.4293L10.3522 12.7844L9.97343 12.9873L9.72094 12.9366L9.53157 12.7844L8.83722 12.3278L8.14287 11.922L6.12293 10.7044L4.35549 9.58829L3.53489 9.03024L2.84054 8.47219L2.33556 8.11707L1.8937 7.71122L1.13622 6.95024L0.631238 6.24L0.568115 6.0878L6.75416 6.03707L6.94353 5.98634L7.89037 4.51512L8.01662 4.31219Z" fill="#00CEC5"/>
<path d="M13.4452 0.0507278H15.0233L15.907 0.202923L16.9169 0.558045L17.6113 0.913167L18.3688 1.47122L18.8738 1.9278L19.3787 2.58731L19.6944 3.29756L19.8206 3.80487V4.92097L19.6312 5.52975L19.5681 5.58048L13.887 5.63122L13.6346 5.83414L12.6246 7.50829L12.4352 7.60975L12.1196 7.35609L11.4884 6.79804L10.794 6.0878L10.4153 5.73268L10.6678 5.63122L10.7309 5.52975L10.9203 4.41365L10.8571 3.75414L10.7309 3.29756L10.4784 2.84097L10.0997 2.28292L10.1628 2.13073H10.3522L10.9203 2.28292L11.4884 2.38439H12.5615L13.2558 2.23219L13.5083 2.02926L13.4452 1.82634L12.9402 1.87707L12.309 1.97853H11.7409L11.1096 1.87707L10.4153 1.52195L10.4784 1.31902L11.1728 0.811703L12.1827 0.355118L12.814 0.152191L13.4452 0.0507278Z" fill="#01ADEA"/>
<path d="M7.82725 4.61658H8.33223L8.58473 4.87024V4.97171H8.71097L9.15283 5.37756L9.27908 5.93561L9.40532 6.03707L9.53157 6.84878L9.46845 7.2039V8.42146L9.59469 9.13171L9.53157 9.84195L9.59469 10.0449V10.7044H9.46845L9.53157 11.2117L9.40532 11.6683H9.53157L9.72094 12.1756V12.3278H9.15283L8.5216 12.0234L8.14287 11.922L6.12293 10.7044L4.35549 9.58829L3.53489 9.03024L2.84054 8.47219L2.33556 8.11707L1.8937 7.71122L1.13622 6.95024L0.631238 6.24L0.568115 6.0878L6.75416 6.03707L6.94353 5.98634L7.82725 4.61658Z" fill="#00E0B5"/>
<path d="M23.4817 2.73951H26.3222L30.9302 2.79024V3.90634L30.804 3.95707H25.0598L25.1229 6.64585L30.4883 6.69658V7.86341H25.0598V10.8566H31.1827V12.0234H23.4817L23.4186 11.9727V2.79024L23.4817 2.73951Z" fill="#00EFA0"/>
<path d="M58.3256 2.73951H62.2392L63.2492 2.79024L64.0067 2.94244L64.6379 3.19609L65.2691 3.65268L65.6479 4.10927L65.9004 4.76878L65.9635 5.52975L65.7741 6.29073L65.3954 6.89951L65.0166 7.25463L64.4485 7.55902L63.691 7.81268L63.0598 7.91414L61.6711 7.96488H59.7774V11.9727L59.7143 12.0234H58.1994L58.1362 11.8205V2.99317L58.1994 2.79024L58.3256 2.73951ZM59.7774 3.85561L59.7143 6.79805L59.7774 6.84878H61.5449L62.6811 6.79805L63.3123 6.64585L63.8804 6.34146L64.1329 5.98634L64.2592 5.52975V5.17463L64.0698 4.61658L63.8173 4.31219L63.3123 4.05853L62.7442 3.90634L62.3655 3.85561H59.7774Z" fill="#01CFC4"/>
<path d="M90.9601 5.63122H91.5913L92.3488 5.73268L93.1063 5.98634L93.6744 6.29073L94.1163 6.64585L94.6212 7.3561L94.9368 8.32V9.2839L94.8737 9.33463H88.8139L88.9402 9.89268L89.2558 10.3493L89.6976 10.6537L90.5814 11.0088L91.5282 11.1102L92.3488 10.958L92.9169 10.6537L93.4219 10.2478L93.6744 10.2985L94.2425 10.6537L94.5581 10.8059L94.495 11.0088L94.1163 11.3639L93.485 11.719L92.7275 11.9727L92.0332 12.1249L91.5282 12.1756H90.7076L90.0133 12.0741L89.3189 11.8712L88.6877 11.5668L88.2458 11.2624L87.804 10.7551L87.3621 9.99415L87.2359 9.53756L87.1727 8.87805L87.2359 8.21854L87.4883 7.55902L87.8671 7.00097L88.5614 6.39219L89.4452 5.93561L90.4551 5.68195L90.9601 5.63122ZM91.0232 6.59512L90.2658 6.74732L89.7608 6.95024L89.1927 7.40683L88.8139 8.01561V8.37073L88.877 8.42146L93.4219 8.37073L93.2325 7.60975L92.8538 7.10244L92.3488 6.79805L91.8438 6.64585L91.0232 6.59512Z" fill="#01ADEA"/>
<path d="M51.5083 5.68195H53.1495L53.907 5.88487L54.6014 6.18926L54.9801 6.44292L55.5482 7.10243L55.8638 7.76195L55.9901 8.21853L56.0532 8.67512V9.2839L55.9901 9.33463H49.8671L50.0565 9.94341L50.309 10.3493L50.8771 10.7044L51.3821 10.958L52.5814 11.1102L53.2127 11.0088L53.7176 10.8058L54.2857 10.4507L54.5382 10.2478L54.8538 10.3493L55.6744 10.8566L55.4851 11.1102L55.0432 11.4654L54.2226 11.8712L53.2127 12.1249L52.7077 12.1756H51.6977L51.0665 12.0741L50.2459 11.8205L49.5515 11.4146L48.9834 10.9073L48.4784 10.0956L48.2891 9.48682V8.26926L48.6047 7.50829L48.9834 6.95024L49.5515 6.44292L50.2459 6.03707L50.9402 5.78341L51.5083 5.68195ZM51.7608 6.64585L51.0665 6.84878L50.5615 7.15317L50.0565 7.71121L49.8671 8.21853L49.9303 8.42146H54.3489L54.412 8.37073L54.3489 7.71121L54.0332 7.2039L53.5283 6.84878L52.897 6.64585H51.7608Z" fill="#00E0B5"/>
<path d="M35.9169 5.63122L37.0531 5.68195L37.8737 5.88488L38.5681 6.18927L38.9468 6.54439L39.2624 7.05171L39.3887 7.50829L39.4518 12.0234H38.1893L38.1262 11.9727L38.0631 11.161L37.7475 11.3639L37.3687 11.719L36.6113 12.0234L35.7907 12.1756H34.7807L33.8339 11.922L33.3289 11.6176L32.9501 11.2624L32.6976 10.8059L32.6345 10.5522V10.1463L32.7608 9.68975L33.0764 9.18244L33.5814 8.77658L34.5913 8.37073L35.98 8.1678L37.1794 8.11707H38L37.8737 7.60975L37.6212 7.15317L37.3056 6.89951L36.8638 6.74732L36.5481 6.69658H35.4751L34.7807 6.89951L34.0863 7.25463L33.7707 7.2039L33.1395 6.64585L33.2026 6.44293L34.0232 6.03707L34.7807 5.78341L35.2857 5.68195L35.9169 5.63122ZM36.6744 9.03024L35.6644 9.13171L34.8438 9.33463L34.3388 9.68975L34.1495 10.0956L34.2757 10.6537L34.5282 10.958L35.0332 11.161L35.4751 11.2117H36.0432L36.6744 11.1102L37.3056 10.8059L37.6844 10.4507L37.9368 9.89268L38 9.63902V9.03024H36.6744Z" fill="#00EFA1"/>
<path d="M67.4784 5.83414H68.9302L68.9934 9.68975L69.1196 10.1971L69.4352 10.6029V10.7044L69.6877 10.8059L70.3821 11.0088H71.1395L71.7076 10.8566L72.2126 10.5015L72.5282 10.1463L72.7176 9.63902L72.7807 6.13853L72.8439 5.83414H74.2957V12.0234H72.907L72.8439 11.9727V11.161L72.5282 11.4146L72.0233 11.7698L71.4552 12.0234L70.6346 12.1756H69.7508L68.9302 11.9727L68.3621 11.6683L67.9203 11.2624L67.6047 10.7551L67.4784 10.4L67.4153 9.89268V5.88488L67.4784 5.83414Z" fill="#01ADEA"/>
<path d="M3.97674 0.202927H4.29236L4.35548 0.30439L4.29236 0.405853L4.48173 0.456585L4.54485 0.558049L4.79734 0.659512L4.86047 0.862439L4.79734 0.963902L4.98671 1.01463L5.04983 2.13073L4.98671 2.33366L4.79734 2.58732V3.1961L4.60797 4.56585L4.48173 4.61659L4.54485 4.97171L4.79734 5.1239L5.17608 5.22537L5.2392 5.42829H5.11296V5.52976L1.70432 5.58049H0.252492L0 4.76878V3.65268L0.189369 3.0439L0.44186 2.53659L0.883721 1.97854L1.51495 1.36976L2.14618 0.963902L2.90365 0.558049L3.97674 0.202927Z" fill="#00EFA0"/>
<path d="M43.9336 5.63122L44.8804 5.68195L45.6379 5.88488L46.2691 6.18927L46.6479 6.54439L46.711 6.69658L46.3954 6.95024L45.8904 7.25463L45.7642 7.3561L45.5117 7.30536L44.8804 6.95024L44.5017 6.84878H43.5548L43.0499 7.05171L42.7974 7.3561L42.8605 7.66049L43.1761 7.96488L43.8073 8.21854L45.1329 8.47219L45.9535 8.72585L46.5847 9.18244L46.8372 9.48683L46.9635 9.89268V10.6029L46.7741 11.0088L46.3954 11.4654L45.8273 11.8205L45.0067 12.0741L44.3754 12.1756H43.2392L42.2293 11.9727L41.598 11.719L41.2193 11.4654L40.9037 11.161L40.9668 10.958L41.8505 10.3493L42.1661 10.4507L42.7974 10.8059L43.2392 10.958L44.0598 11.0088L44.6911 10.9073L45.196 10.6537L45.3223 10.4507V10.1463L45.0698 9.84195L44.6911 9.63902L43.7442 9.38536L42.7974 9.18244L42.1661 8.97951L41.6612 8.67512L41.2824 8.1678L41.1562 7.66049V7.30536L41.3455 6.79805L41.7243 6.34146L42.4186 5.93561L43.0499 5.73268L43.9336 5.63122Z" fill="#00E0B5"/>
<path d="M82.8172 5.63122L83.8272 5.68195L84.7109 5.93561L85.4053 6.34146L85.5946 6.54439L85.5315 6.79805L84.6478 7.3561L84.3953 7.30536L83.9535 7.00097L83.1329 6.79805H82.691L82.1229 6.95024L81.8073 7.2039L81.7442 7.55902L81.9335 7.86341L82.5647 8.1678L84.4584 8.57366L85.1528 8.87805L85.5946 9.23317L85.9103 9.89268V10.5015L85.7209 11.0088L85.3422 11.4146L84.8372 11.7698L84.2691 11.9727L83.6378 12.1249L83.196 12.1756H82.2491L81.4917 12.0741L80.7342 11.8205L80.1661 11.4654L79.8505 11.161L79.9136 10.958L80.7342 10.4L80.9867 10.3493L81.5548 10.7551L82.1229 10.958L82.3754 11.0088H83.196L83.7641 10.8566L84.0797 10.6537L84.2059 10.4507V10.0956L84.0166 9.84195L83.5116 9.58829L82.691 9.38536L81.681 9.18244L80.7973 8.82732L80.3554 8.37073L80.103 7.86341V7.2039L80.3554 6.69658L80.7342 6.29073L81.3654 5.93561L81.9966 5.73268L82.8172 5.63122Z" fill="#01ADEA"/>
<path d="M14.1395 6.08781H19.2525L19.1893 6.34147L18.6844 7.05171L18.2425 7.50829L17.6744 8.06634L16.6013 8.92878L15.907 9.38537L14.897 10.0449L14.0133 10.5522L13.3189 10.9581L13.2558 10.7551L13.5083 10.5015L13.5714 10.0956H13.4452V9.99415L13.1927 9.94342L13.1295 9.48683L13.0664 9.23317L13.0033 8.72586L12.8139 8.52293V8.42147H12.6877L12.7508 8.21854L13.5083 7.05171L14.0133 6.18927L14.1395 6.08781Z" fill="#01ADEA"/>
<path d="M76.6312 2.13073H78.0831L78.1462 2.23219L78.0831 12.0234H76.6312L76.5681 11.3639V2.18146L76.6312 2.13073Z" fill="#01ADEA"/>
<path d="M59.0199 2.73951H62.2392L63.2492 2.79024L64.0066 2.94244L64.6379 3.19609L65.2691 3.65268L65.6478 4.10927L65.9003 4.76878L65.9634 5.52975L65.7741 6.29073L65.3953 6.89951L65.0166 7.25463L64.4485 7.55902L63.691 7.81268L63.0598 7.91414L61.6711 7.96488H60.2824L60.5349 7.76195V7.91414L61.5448 7.86341V7.76195L61.8605 7.71122L61.3555 7.66049L61.4186 7.45756L61.4817 7.40683L62.5548 7.3561L62.4286 7.15317L61.9236 6.95024L60.9767 6.89951V6.84878L62.6811 6.74731L63.3123 6.59512L63.8173 6.34146L64.0698 5.98634L64.196 5.52975V5.17463L64.0066 4.61658L63.7541 4.31219L62.9967 4.0078L62.3654 3.90634L60.0299 3.85561V3.80488H60.7874L60.9136 3.44975L61.9867 3.29756L62.1129 3.09463L61.7973 2.99317V2.8917L61.103 2.84097L59.7774 2.8917L59.2093 2.94244L58.8937 2.84097L59.0199 2.73951Z" fill="#00C3D3"/>
<path d="M10.0997 2.13073H10.3522L10.9203 2.28292L11.4884 2.38439H12.814V2.63805L13.1296 2.68878L13.2558 2.94244L13.3821 2.99317L13.5083 3.24683L13.5714 3.34829L13.5083 3.39902L13.5714 3.50049H13.4452V3.60195H13.5714L13.5083 4.05853L13.5714 4.31219L13.4452 4.76878L13.3821 5.37756L13.4452 5.47902L13.5083 5.83414L13.5714 5.93561L12.6246 7.50829L12.4352 7.60975L12.1196 7.3561L11.4884 6.79805L10.794 6.0878L10.4153 5.73268L10.6678 5.63122L10.7309 5.52975L10.9203 4.41366L10.8571 3.75414L10.7309 3.29756L10.4784 2.84097L10.0997 2.28292V2.13073Z" fill="#01C2D4"/>
<path d="M51.5083 5.68195H53.1495L53.907 5.88487L54.6013 6.18926L54.9801 6.44292L55.5482 7.10243L55.8638 7.76195L55.99 8.21853L56.0531 8.67512V9.2839L55.99 9.33463H53.7176L51.0033 9.2839V9.03024L50.6877 8.92878V8.67512L50.3721 8.52292L50.2458 8.42146L54.3488 8.37073L54.2857 7.71121L53.9701 7.2039L53.5282 6.89951L52.897 6.69658H51.7608L51.0664 6.89951H50.9402L50.8771 6.69658H50.5614L50.3721 6.64585V6.54438H49.9302V6.64585L49.5515 6.74731L49.299 6.79804L49.2359 6.95024H49.1096L49.0465 7.15317L48.794 7.30536L48.9203 7.0517L49.299 6.64585L49.9302 6.18926L50.9402 5.78341L51.5083 5.68195Z" fill="#00D4C0"/>
<path d="M0.568115 6.08781H6.56479V6.13854H5.11297L5.04984 6.34147L5.17609 6.3922L5.11297 6.64586L5.30233 7.05171H5.11297L5.17609 7.25464L5.42858 7.30537L5.36546 7.55903L5.23921 7.76195V7.86342L5.36546 7.91415V8.37073L5.23921 9.03025L5.30233 9.4361V9.79122L4.9236 9.68976L4.86047 9.53756L4.22925 9.48683L3.59802 9.08098L2.84054 8.4722L2.33556 8.11707L1.8937 7.71122L1.13622 6.95025L0.631238 6.24L0.568115 6.08781Z" fill="#00EFA0"/>
<path d="M67.4784 5.83414H68.9302L68.9934 9.68975L69.1196 10.1971L69.4352 10.6029V10.7044L69.6877 10.8059L70.3821 11.0088L71.1395 11.161L71.5814 11.2624L71.897 11.3132L71.6445 11.6176L71.392 11.7698L70.3821 11.9727L69.309 11.8205L68.5515 11.4654L67.9834 11.0595L67.7309 10.8059L67.6047 10.7551L67.4784 10.4L67.4153 9.89268V5.88488L67.4784 5.83414Z" fill="#01C2D4"/>
<path d="M7.82726 4.61658H8.33225L8.58474 4.87024V4.97171H8.71098L9.15284 5.37756L9.27909 5.93561L9.40534 6.03707L9.53158 6.84878L9.46846 7.2039V8.42146L9.59471 9.13171L9.53158 9.84195L9.59471 10.0449V10.7044H9.46846L9.53158 11.2117L9.40534 11.6683H9.53158L9.72095 12.1756V12.3278H9.15284L8.52162 12.0234L8.14288 11.922L7.13291 11.3132L6.94354 11.161L7.13291 11.1102L7.44853 11.3132L8.07976 11.4146L8.01663 10.7551L8.07976 10.3493L8.26912 10.4507L8.33225 10.2985V9.63902L8.14288 7.66049L8.07976 7.2039V6.79805L7.95351 6.54439V6.34146L8.07976 6.29073L7.82726 5.88488V5.78341H7.32228L7.19603 5.98634L7.00667 6.03707L7.06979 5.78341L7.82726 4.61658Z" fill="#00D5BF"/>
<path d="M7.57477 0.355118L7.95351 0.456581L8.58474 0.760971L9.21597 1.21756L10.1628 1.97853L10.3522 2.08L10.2891 2.23219L10.1628 2.18146L10.2891 2.48585L10.6678 3.0439L10.8572 3.39902L10.9834 4.10926L10.9203 4.87024L10.794 5.52975L10.6678 5.73268L10.2891 5.63122L9.53158 4.92097L8.96347 4.36292L8.26912 3.70341L7.95351 3.60195L7.57477 4.10926L7.32228 4.46439H7.25916V4.05853L7.3854 3.60195L7.82726 3.29756L7.95351 3.09463L8.07975 2.94243L7.95351 2.8917L8.01663 2.79024L7.95351 2.43512L8.01663 2.02926L8.206 1.9278L8.01663 1.57268V1.26829L7.89038 1.01463L7.76414 0.608776L7.57477 0.456581V0.355118Z" fill="#01CEC5"/>
<path d="M10.4153 6.49366L10.7309 6.69659L11.299 7.25464L12.0565 7.96488L12.4984 8.32H12.6877V8.42146H12.814L13.0665 8.72586L13.1296 9.23317L13.1927 9.48683V9.94342L13.4452 9.99415V10.0956H13.5715L13.6346 10.2985L13.5083 10.5522L13.319 10.7551L13.1927 11.0595L12.0565 11.719L11.4884 12.0741L11.3622 12.0234L11.4884 11.4146H11.299V11.2624L11.1097 11.5161L10.794 11.4654L10.8572 10.9581V9.79122L10.9203 9.74049L10.8572 9.4361L10.794 8.97951L10.7309 8.72586V7.50829L10.4153 6.84878L10.2891 6.69659H10.4153L10.3522 6.54439L10.4153 6.49366Z" fill="#01C2D4"/>
<path d="M54.5382 10.2478L54.8538 10.3493L55.6744 10.8566L55.4851 11.1102L55.0432 11.4654L54.2226 11.8712L53.2126 12.1249L52.7077 12.1756H51.6977L51.0665 12.0741L50.4984 11.9219L50.6877 11.7698L51.1927 11.719H51.3821V11.6176H51.5083V11.5161L51.319 11.4654L51.1296 11.2624V11.0595L51.3821 11.1102L51.5083 11.0088L52.5814 11.1102L53.2126 11.0088L53.7176 10.8059L54.2857 10.4507L54.5382 10.2478Z" fill="#00D4C0"/>
<path d="M7.57477 0.355118L7.95351 0.456581L8.33225 0.608776L8.39537 0.811703L8.71098 1.01463L9.15284 1.47122L9.27909 1.77561L9.53158 2.28292V2.99317L9.40533 3.44975L9.34221 3.85561L9.40533 4.10926L9.27909 4.16V4.26146L8.90035 4.31219L8.26912 3.70341L7.95351 3.60195L7.57477 4.10926L7.32228 4.46439H7.25916V4.05853L7.3854 3.60195L7.82726 3.29756L7.95351 3.09463L8.07975 2.94244L7.95351 2.8917L8.01663 2.79024L7.95351 2.43512L8.01663 2.02926L8.206 1.9278L8.01663 1.57268V1.26829L7.89038 1.01463L7.76414 0.608776L7.57477 0.456581V0.355118Z" fill="#00D5BF"/>
<path d="M9.78407 5.88488L10.1628 6.13854L10.4153 6.3922V6.69659V6.79805L10.6047 7.05171L10.794 7.50829V8.72586L10.9203 9.18244V9.53756L10.9834 9.84195L10.9203 9.89268V10.9581L10.8572 11.4654L11.1097 11.5161L11.1728 11.2624H11.299V11.4146H11.4884L11.4253 12.0234L11.1097 12.2771L10.3522 12.7844L9.97344 12.9873L9.72095 12.9366L9.53158 12.7844L9.08972 12.48L9.27909 12.4293L9.59471 12.5815L9.72095 12.7337L10.0997 12.8351V12.7337H10.2259V11.8712L10.4784 11.2117L10.4153 10.8059L10.3522 10.7551L10.2891 9.94342L10.2259 8.72586V7.45756L9.97344 6.59512L9.78407 6.18927V5.88488Z" fill="#02CCCE"/>
<path d="M58.3256 2.73951L58.8937 2.79024L59.2093 2.8917L59.7774 2.84097L61.1661 2.79024L61.7973 2.84097L61.8605 2.99317L62.113 3.09463V3.29756L61.3555 3.44975L60.9136 3.50049V3.70341H60.7874V3.80488L59.588 3.90634H59.2724V4.0078H59.0831L58.8937 3.60195L58.8306 3.55122L58.7674 3.0439H58.4518L58.2625 3.09463L58.1993 3.19609V2.79024L58.3256 2.73951Z" fill="#02CCCD"/>
<path d="M11.7409 0.659515H12.4352L12.4983 0.760979L12.4352 0.913174H12.7508V1.1161L13.0033 1.01464L13.2558 1.21756L13.1296 1.47122L13.2558 1.52195L13.1927 1.72488L13.3189 1.77561L12.7508 1.92781L12.309 1.97854H11.7409L11.1096 1.87708L10.4153 1.52195L10.4784 1.31903L11.1728 0.811711L11.4252 0.710247L11.7409 0.659515Z" fill="#01C3D3"/>
<path d="M9.78407 1.77561L10.0366 1.87708L10.3522 2.08L10.2891 2.2322L10.1628 2.18147L10.2891 2.48586L10.6678 3.0439L10.8572 3.39903L10.9834 4.10927L10.9203 4.87025L10.794 5.52976L10.6678 5.73269L10.2891 5.63122L9.78407 5.1239L9.91032 5.02244H10.0997L10.2259 4.51512L10.2891 4.05854V3.50049L10.0997 2.68878L9.97344 2.2322L9.72095 1.87708L9.78407 1.77561Z" fill="#02CCCE"/>
<path d="M60.1561 6.84878H60.9767L61.9236 6.89951L62.4917 7.15317L62.6179 7.35609L62.5548 7.40683L61.4817 7.45756L61.3555 7.66049H61.9867L61.8605 7.76195H61.5448V7.86341L61.3555 7.91414H60.5349L60.4718 7.81268L60.3455 7.91414L60.093 7.86341L60.4718 7.60975V7.50829L60.1561 7.25463V6.84878Z" fill="#03CDCE"/>
<path d="M59.7143 4.0078H59.7774V5.63122L59.7143 5.98634L59.5249 5.93561L59.4618 5.73268L59.6512 5.68195L59.588 5.42829V4.87024L59.7143 4.0078Z" fill="#02C9D0"/>
<path d="M54.5382 10.2478L54.8538 10.3493L54.9169 10.4507L54.0332 10.8566L53.907 10.8059L53.9701 10.6537L54.3488 10.4L54.5382 10.2478Z" fill="#01CDC6"/>
<path d="M50.1827 10.2985L50.6877 10.6029L51.1296 10.8566L51.0665 10.9581L50.4352 10.7044L50.3721 10.5522H50.2459L50.1827 10.2985Z" fill="#00D5BF"/>
<path d="M59.7143 11.2624H59.7774V11.9727L59.7143 12.0234H58.1993L58.2625 11.9219H59.588L59.6512 11.8205L59.7143 11.2624Z" fill="#01C3D4"/>
<path d="M38.3156 6.08781L38.6944 6.29073L39.0731 6.69659L39.01 6.79805L38.7575 6.64586V6.49366L38.505 6.3922L38.3156 6.24V6.08781Z" fill="#00E0B5"/>
<path d="M49.1096 10.958L49.4252 11.0595V11.161L49.6777 11.2624L49.9302 11.5668L49.6146 11.4654L49.1727 11.1102L49.1096 10.958Z" fill="#00D1C4"/>
<path d="M49.3621 6.59512L49.5515 6.64585L49.4252 6.79805H49.299L49.2359 6.95025H49.1096L49.0465 7.15317L48.794 7.30537L48.9203 7.05171L49.299 6.64585L49.3621 6.59512Z" fill="#00D2C2"/>
<path d="M39.3256 11.161H39.3887L39.4518 11.4654V12.0234L39.1993 11.9727L39.3256 11.161Z" fill="#00DEB7"/>
<path d="M55.2325 10.7044L55.5482 10.7551L55.6744 10.9073L55.3588 11.161L55.2325 11.1102V11.0088H55.3588L55.2325 10.7044Z" fill="#00CFC4"/>
<path d="M9.08972 12.4293L9.46846 12.48L9.72095 12.7844L9.40534 12.7337L9.08972 12.4293Z" fill="#02CDCC"/>
</g>
<defs>
<clipPath id="clip0_106_2">
<rect width="95" height="13" fill="white"/>
</clipPath>
</defs>
</svg>
